# xmcd CD database file
#
# Track frame offsets:
#	150
#	16365
#	34954
#	57534
#	86754
#	104019
#	121335
#	145614
#	163960
#	195623
#
# Disc length: 2769 seconds
#
# Revision: 0
# Processed by: cddbd v1.5.2PL0 Copyright (c) Steve Scherf et al.
# Submitted via: CDex 1.51
#
DISCID=8f0acf0a
DTITLE=OldBoy - In the Cold Light of Day
DYEAR=2008
DGENRE=Country
TTITLE0=Sleeping On the Railroad Track
TTITLE1=My Demon
TTITLE2=Blind Eye
TTITLE3=Kickin' Off
TTITLE4=The Lesson
TTITLE5=Small Train
TTITLE6=Suffer Like I Do
TTITLE7=A Tragic Accident
TTITLE8=Apple Falls
TTITLE9=Shall I Go?
EXTD=YEAR: 2008
EXTT0=
EXTT1=
EXTT2=
EXTT3=
EXTT4=
EXTT5=
EXTT6=
EXTT7=
EXTT8=
EXTT9=
PLAYORDER=
